<svg data-v-423bf9ae="" xmlns="http://www.w3.org/2000/svg" viewBox="0 0 218 90" class="iconLeft"><!----><!----><!----><g data-v-423bf9ae="" id="eed0b88d-d3de-45a4-8c10-d796cdd6dfa8" fill="#19CEDA" transform="matrix(6.211180210113525,0,0,6.211180210113525,109.50311279296875,-3.3229804039001465)"><path d="M0.08 12.61L3.95 2.95L5.25 2.95L9.10 12.61L7.23 12.61L6.48 10.51L2.73 10.51L1.98 12.61L0.08 12.61ZM3.32 9.02L5.89 9.02L4.61 5.50L3.32 9.02ZM10.42 12.61L10.42 2.95L13.77 2.95L13.77 2.95Q14.57 2.95 15.27 3.21L15.27 3.21L15.27 3.21Q15.98 3.47 16.42 4.05L16.42 4.05L16.42 4.05Q16.86 4.63 16.86 5.55L16.86 5.55L16.86 5.55Q16.86 6.17 16.55 6.69L16.55 6.69L16.55 6.69Q16.24 7.20 15.79 7.44L15.79 7.44L15.79 7.44Q16.22 7.61 16.58 7.98L16.58 7.98L16.58 7.98Q16.93 8.36 17.14 8.84L17.14 8.84L17.14 8.84Q17.34 9.32 17.34 9.80L17.34 9.80L17.34 9.80Q17.34 10.67 16.91 11.31L16.91 11.31L16.91 11.31Q16.47 11.94 15.75 12.27L15.75 12.27L15.75 12.27Q15.03 12.61 14.19 12.61L14.19 12.61L10.42 12.61ZM12.16 6.84L13.94 6.84L13.94 6.84Q14.53 6.84 14.90 6.57L14.90 6.57L14.90 6.57Q15.27 6.30 15.27 5.65L15.27 5.65L15.27 5.65Q15.27 5.10 14.86 4.81L14.86 4.81L14.86 4.81Q14.45 4.51 13.80 4.51L13.80 4.51L12.16 4.51L12.16 6.84ZM12.16 10.95L14.22 10.95L14.22 10.95Q14.90 10.95 15.27 10.62L15.27 10.62L15.27 10.62Q15.63 10.28 15.63 9.61L15.63 9.61L15.63 9.61Q15.63 9.26 15.45 8.97L15.45 8.97L15.45 8.97Q15.26 8.68 14.93 8.51L14.93 8.51L14.93 8.51Q14.59 8.33 14.15 8.33L14.15 8.33L12.16 8.33L12.16 10.95Z"></path></g><!----><g data-v-423bf9ae="" id="6385efa3-a8b5-4e15-9c93-af9706b35bed" transform="matrix(2.8125,0,0,2.8125,0,0)" stroke="none" fill="#19CEDA"><path d="M0 16.024L15.976 32 32 15.976 16.024 0 0 16.024zm15.989 7.323l-7.336-7.336 14.694-.022-7.358 7.358z"></path></g><!----></svg>